<?xml version="1.0" encoding="UTF-8"?>
<svg width="752pt" height="752pt" version="1.1" viewBox="0 0 752 752" xmlns="http://www.w3.org/2000/svg">
 <g fill="#fff">
  <path d="m267.08 466.11v-48.07-23.316l-1.7031-0.15625c-1.7188-0.15625-3.3477-0.30078-4.9883-0.60156h-0.003907c-4.1719-0.58594-8.1055-2.3125-11.359-4.9883-3.2578-2.6758-5.7109-6.1992-7.0938-10.18-2.7305-7.2461-5.3672-14.664-7.8945-21.832l-1.4219-4.0078 0.003907-0.003906c-1.0117-2.6992-0.96484-5.6836 0.125-8.3516 1.0664-2.5469 3.168-4.5234 5.7773-5.4297 5.5742-1.9883 11.191 0.86719 13.355 6.7891 1.6562 4.5312 3.2852 9.0625 4.9102 13.609 1.2305 3.4258 2.4609 6.8672 3.7109 10.293 1.375 3.7891 2.3984 4.4844 6.4414 3.9609-0.011719-4.9258-0.86719-9.8086-2.5273-14.445-2.418-7.7266-6.25-14.938-11.305-21.266-0.95312-1.1484-2.1719-2.0469-3.5508-2.6172-6.4102-2.4961-12.406-4.7344-18.344-6.6758v-0.003906c-1.2656-0.375-2.6211-0.31641-3.8516 0.16016-5.6602 2.1445-10.484 6.0391-13.777 11.121-3.2891 5.0781-4.875 11.074-4.5195 17.117 2.1953 43.934 2.3359 88.402 2.1797 130v0.003906c-0.011719 0.18359-0.011719 0.36719 0 0.55078h33.988c5.8047 0.14453 11.414-2.0859 15.539-6.1719 4.1211-4.0898 6.3984-9.6797 6.3086-15.484zm-7.0898-27.547-2.0352 0.51953-0.23828-0.69531c-0.31641-0.94531-0.61719-1.9102-0.89844-2.8555-0.58203-2.0664-1.3164-4.0898-2.1953-6.0469-2.6797-5.5938-2.6328-12.109 0.12891-17.664 0.80469-1.8008 1.9258-3.3008 4.7344-2.1797l0.48828 0.1875z"/>
  <path d="m415.46 439.14c7.168-7.625 7.2148-17.539 0.10938-25.258-5.5898-6.0781-12.977-9.4727-22.574-10.418h0.003906c-2.8281-0.21094-5.6641-0.26172-8.4922-0.14062h-2.9531c3.3633 15.484 0 26.172-10.496 33.562l-0.003906-0.003906c-4.6094 3.2969-10.109 5.1172-15.777 5.2266-5.668 0.10547-11.234-1.5078-15.965-4.625-11.824-8.0352-15.785-19.559-11.602-34.254-1.5781-0.09375-3.332-0.15625-5.0352-0.15625-9.4727 0-19.559 1.7852-27.816 9.5977l-0.003906-0.003906c-3.9062 3.4922-6.1914 8.4492-6.3125 13.688 0.10938 5.2812 2.3945 10.285 6.3125 13.828 6.4414 6.168 15.047 9.5703 23.965 9.4727 23.223 0.25391 47.152 0.26953 71.148 0 10.387-0.16016 18.973-3.6953 25.492-10.516z"/>
  <path d="m208.67 240.71c2.0977 2.6367 5.5742 4.043 10.039 4.0586h42.258 36.012 148.21c1.9492 0.089843 3.8984-0.15234 5.7617-0.72656 3.7578-1.4062 7.8945-4.1211 6.8516-12.629h-251c-0.78906 3.2227-0.10547 6.6289 1.8594 9.2969z"/>
  <path d="m331.33 413.89c0.12891 6.0586 2.6016 11.832 6.9023 16.105 4.2969 4.2695 10.086 6.707 16.145 6.8008 6.1953 0.015625 12.141-2.4414 16.516-6.8281 4.375-4.3867 6.8164-10.34 6.7852-16.535 0.042969-6.1484-2.3906-12.055-6.75-16.395-4.3555-4.3359-10.277-6.7422-16.426-6.668-6.1602-0.019532-12.074 2.4297-16.418 6.8047-4.3906 4.4453-6.8242 10.465-6.7539 16.715z"/>
  <path d="m347.51 466.72h14.16v43.395h-14.16z"/>
  <path d="m347.76 344.92c4.5469 0.23828 9.1055 0.23828 13.652 0 2.7148-0.125 3.3945-0.89844 3.3945-3.9141v-10.547-3.6289h-1.1367c-1.2539 0.070313-2.5078 0.039063-3.7578-0.09375-3.8047-0.27344-6.9102-3.1562-7.4648-6.9297-0.34375-3.9102 2.0508-7.5391 5.7773-8.7617 1.5469-0.51172 3.1289-0.91016 4.7344-1.1836l1.5781-0.31641v-3.3008h-20.109c-0.074219 0.46094-0.11719 0.92578-0.125 1.3906v33.355c-0.066407 2.8867 0.75781 3.8047 3.457 3.9297z"/>
  <path d="m278.63 455.44h151.94v2.6992h-151.94z"/>
  <path d="m400.72 521.6h6.3945v-0.69531-2.9531c0-3.4727-1.7695-5.082-5.2891-5.082h-51.305c-12.816 0-26.078 0.09375-39.117-0.125-3.8203 0-6.0469 0.48828-7.1836 1.7695-1.1367 1.2773-1.3906 3.3164-0.96484 7.1055h6.2188l0.31641-4.5h90.531z"/>
  <path d="m407.89 462.23c-19.559-1.6719-39.465-1.4375-58.754-1.2148-10.34 0.125-21.043 0.25391-31.57 0.09375h-0.003906c-3.4336-0.003907-6.8633 0.17188-10.277 0.51953-2.8398 0.25391-5.7773 0.50391-8.6836 0.55078-2.5391-0.03125-5.0703-0.24609-7.5781-0.64453-1.293-0.17188-2.5742-0.34766-3.8672-0.47266v-0.003906c-0.61719-0.058594-1.2422-0.058594-1.8633 0h-0.30078c0.37891 2.2734 1.7852 2.7617 3.8672 2.7617h130.57c3.3789 0 4.0742-0.28516 4.7344-3.0781l-1.9727 0.30078c-2.3672 0.34766-4.5938 0.67969-6.8672 0.91406l0.003907 0.003906c-2.4648 0.3125-4.9531 0.40234-7.4336 0.26953z"/>
  <path d="m305.15 317.59c3.1641 0.81641 6.5273 0.19141 9.1875-1.707 2.457-1.7109 4.0039-4.4453 4.1992-7.4336 0.33984-5.1211 0.33984-10.258 0-15.375-0.41797-5.6133-5.2227-9.875-10.844-9.6289-5.7031 0.16406-10.285 4.7578-10.434 10.465v3.5508 1.0898l6.8672 0.94531v0.77344c-0.14062 1.375-0.26953 2.7305-0.39453 4.1055-0.30078 3.1562-0.60156 6.4258-1.0586 9.5977-0.39453 2.1641 0.20312 3 2.4766 3.6172zm-3.4414-25.809v-0.003906c0-3.3984 2.7578-6.1562 6.1562-6.1562 3.3516-0.003906 6.125 2.6094 6.3164 5.9531 0.046875 1.6758-0.59766 3.2969-1.7852 4.4844-1.1719 1.2031-2.7852 1.8789-4.4648 1.8789-3.3984-0.050781-6.1445-2.7773-6.2227-6.1758z"/>
  <path d="m344.43 280.84h20.145v21.707h-20.145z"/>
  <path d="m234.29 524.53c1.8477-0.10938 3.6641-0.09375 5.6055 0h1.9258l2.4609-33.152-14.918 0.003906 0.1875 2.1953c0.17188 2.2422 0.34766 4.4688 0.56641 6.6914 0.25391 2.668 0.51953 5.3203 0.78906 7.9883 0.47266 4.7344 0.98047 9.6133 1.3906 14.445 0.14453 1.5781 0.49219 1.9062 1.9922 1.8281z"/>
  <path d="m291.4 300.75c-5.3359-0.63281-8.1133-0.94531-9.5664-1.2148l-1.3438 13.102 19.18 1.9727 1.3242-12.77z"/>
  <path d="m362.32 277.51 0.09375-1.8945c0.20703-3.7422 0.39453-6.9609-2.9844-9.2812-2.7109-1.9258-6.2969-2.0859-9.1719-0.41016-3.9453 2.0664-3.8359 5.5586-3.7266 9.582v2.0039z"/>
  <path d="m336.16 285.59c-0.078125 4.4844 0 8.8867 0 12.219-0.082031 0.64062 0.13672 1.2812 0.58984 1.7422 0.45312 0.45703 1.0898 0.68359 1.7305 0.60937h2.6055 0.69531v-16.828h-3.1562c-1.6602 0.03125-2.4336 0.77344-2.4648 2.2578z"/>
  <path d="m333.08 297.64v-8.1484l-1.957 0.72656c-3.1562 1.168-6.0781 2.2734-9.0469 3.457h0.003906c-0.33203 0.23047-0.5625 0.57422-0.64844 0.96484-0.09375 1.9414-0.078126 3.9297 0 6.0312v1.3242z"/>
  <path d="m408.27 258.77c3.2852-0.1875 6-2.5273 6.0781-5.2266l-0.003906 0.003906c0-1.3125-0.52344-2.5664-1.4492-3.4922-1.2266-1.2148-2.8828-1.9062-4.6094-1.9258-5.082-0.09375-10.277 0-15.281 0h-6.3125-5.3984v20.523 31.57c0 6.6289-3.0781 10.23-9.6445 11.305-3.3555 0.54688-6.7148 1.1172-10.07 1.7031h-0.003906c-0.53906 0.10156-1.0664 0.24219-1.5781 0.42969-3.1562 1.0742-5.0977 3.6641-4.5781 6.3125 0.51953 2.6523 3.5352 4.5312 6.8672 4.1523 1.3594-0.15625 2.7461-0.39453 4.0898-0.63281 1.3438-0.23828 2.2578-0.39453 3.3945-0.53516h-0.003906c0.52734-0.046876 1.0547-0.046876 1.5781 0h0.50391l0.20703 0.45703c0.16016 0.32031 0.25781 0.66797 0.28516 1.0273v3.457c0 1.1523-0.09375 2.3047 0 3.4414 0.078125 3.8359-1.1992 5.0977-5.3047 5.1953v-0.003906c-0.69141-0.11328-1.3945-0.11328-2.082 0-0.21094 0.10156-0.39844 0.24219-0.55469 0.41016 0.13672 0.26953 0.35937 0.48438 0.63281 0.61719 2.0938 0.75 4.418 0.50781 6.3125-0.66406 1.4766-0.93359 2.4219-2.5156 2.543-4.2617 0.17188-2.2734 0.125-4.5625 0.09375-6.9766v-3.5547l0.66406-0.10938c4.957-0.82031 9.4609-3.3828 12.699-7.2227 3.2422-3.8438 5.0078-8.7148 4.9805-13.738v-42.23h12.914c0.94531 0.015624 1.9883 0.03125 3.0312-0.03125z"/>
  <path d="m274.97 304.87c-0.50391 3.4727 0.22266 4.9102 3.0781 5.668l0.94531-8.9648h-0.37891v-0.003907c-0.93359-0.097656-1.8633 0.20313-2.5625 0.83594-0.69531 0.62891-1.0898 1.5234-1.082 2.4648z"/>
  <path d="m270.23 313.14c0.007813-2.7734-0.12891-5.543-0.41016-8.3008-0.09375-1.1211-0.1875-2.2578-0.26953-3.4414-9.5195 0.75391-18.703 3.8789-26.707 9.0898 4.0898 7.5938 10.512 11.918 21.957 14.824l1.5781 0.37891-9.2812 7.6875c0.85938-0.10156 1.6953-0.35938 2.4609-0.75781 6.8984-4.3242 10.516-10.859 10.672-19.48z"/>
  <path d="m235.98 284.44c1.4805-0.41797 3.0703-0.15625 4.3398 0.71094 1.1836-2.1172 2.4453-3.1562 3.8203-3.25 1.625 0.13281 3.0703 1.0898 3.8203 2.5391h0.09375c1.5781-1.0586 3.25-2.1484 4.8789-1.5781 1.0742 0.39453 1.8633 1.5781 2.4297 3.3633 0.30859 0.0625 0.62109 0.10938 0.93359 0.14063h0.48828c0.41406 0.058593 0.82812 0.089843 1.2461 0.097656 1.0586 0 1.7695 0.09375 1.8008 0.88281 0.09375 1.9414 1.4062 3.0312 2.9219 4.293 1.7773 1.1289 3.0156 2.9375 3.4258 5.0039 0.75-0.10547 1.4219-0.52344 1.8438-1.1523 0.28516-0.69531 0-1.8164-1.0117-3.1562h0.003906c-4.7695-7.8438-13.285-12.633-22.465-12.629h-0.22266c-6.125 0-16.512 7.0703-18.691 12.785-0.33203 0.85156-0.67969 1.7031-1.0273 2.5586h0.003906c-1.5 3.1172-2.4375 6.4727-2.7773 9.9141 0.12109 3.457 0.70703 6.8789 1.7344 10.18 0.33203 1.2461 0.66406 2.5273 0.94531 3.8047l0.85156-0.10938c1.375-2.2422 1.293-5.082-0.25391-8.4609l-0.42578-0.86719c-0.89844-1.8164-1.832-3.6953 0.64844-5.9531h0.003906c0-0.48438-0.03125-0.96875-0.09375-1.4531-0.042969-0.15625-0.11719-0.30078-0.22266-0.42578-0.25781-0.33594-0.41406-0.74219-0.44141-1.168 0-3.0625 0.74219-3.1562 1.0742-3.2695 1.5781-0.26953 1.8164-1.5781 2.1641-3.5195 0.34766-1.9414 0.91406-4.9883 4.625-4.8945l-0.003906 0.003906c0.45703-0.14844 0.84375-0.45703 1.0898-0.87109 0.20703-1.4961 1.1172-2.8008 2.4492-3.5195z"/>
  <path d="m239.23 312.86-11.617 9.9609 15.785 4.9102c-0.16406-1.5195-0.16406-3.0547 0-4.5781 0.14062-3.8984 0.39453-7.5742-4.168-10.293z"/>
  <path d="m480 326.2-1.4062 3.1562v0.003907c-1.1875 2.5039-2.2422 5.0703-3.1562 7.6875-2.7148 8.1758-1.5781 15.551 3.5352 21.879 0.58984 0.64453 1.2891 1.1797 2.0703 1.5781l-6.1875-10.277 1.5781 0.14062c11.762 1.1367 19.273-0.77344 25.668-6.5352-5.7695-7.6367-13.371-13.703-22.102-17.633z"/>
  <path d="m523.76 345.69c0.85547-3.3555 1.1016-6.8359 0.72656-10.277 0-0.92969-0.078125-1.8477-0.09375-2.7461-0.125-6.2031-7.6875-16.527-13.48-18.422-8.6016-3.125-18.207-1.543-25.355 4.168-1.3906 1.0273-2.0977 1.957-2.0508 2.6992 0.046875 0.74219 0.47266 1.1523 1.3242 1.7695h0.003906c1.0781-1.8125 2.8516-3.1016 4.9062-3.5703 1.8633-0.67969 3.457-1.2461 4.1992-3.0469 0.30078-0.74219 0.98047-0.53516 1.9883-0.22266 0.41016 0.10938 0.86719 0.25391 1.2148 0.33203l0.47266 0.09375 0.003907 0.003906c0.3125 0.082032 0.62891 0.13672 0.94531 0.17188 0.70703-1.2734 1.9688-2.1445 3.4102-2.3516 1.6875 0 2.9219 1.5781 4.0742 3.1562v0.09375c1.7695-1.2305 3.2344-1.5781 4.4375-1.0742 1.1992 0.50391 2.0977 1.957 2.5117 4.3398l-0.003906 0.003906c1.4883-0.38672 3.0742-0.09375 4.3242 0.80469 1.0234 1.1367 1.4336 2.6953 1.1055 4.1836 0.10156 0.47266 0.36328 0.89844 0.74219 1.1992 3.5352 1.1523 3.0469 4.043 2.6836 6.1406-0.36328 2.0977-0.47266 3.2852 0.85156 4.0586 0.28516 0.17188 0.94531 0.55078-0.078125 3.4414-0.17188 0.38672-0.45703 0.71094-0.82031 0.92969-0.11328 0.070313-0.21094 0.15625-0.30078 0.25391-0.28516 0.48828-0.48047 1.0234-0.58203 1.5781 1.5781 2.8906 0 4.3398-1.4531 5.7461l-0.67969 0.67969c-2.6055 2.6523-3.6484 5.3047-3.1562 7.8945l0.75781 0.39453c0.69531-1.1211 1.4531-2.2109 2.1797-3.2852 2.1406-2.793 3.8906-5.8672 5.1914-9.1406z"/>
  <path d="m497.55 355.48c-0.375 1.4922-0.90234 2.9414-1.5781 4.3242l16.48 0.67969-7.6719-13.309c-5.2422 1.0586-6.2539 4.6094-7.2305 8.3047z"/>
  <path d="m478.61 480.32c18.707 0.45703 38.676 0.48828 59.449-3.9141-0.41016-5.7461-0.75781-11.477-1.1055-17.176-0.82031-13.656-1.6719-27.785-3.3633-41.5-1.4219-11.477-4.7344-22.762-8.6992-35.266-2.7148-8.6523-8.1289-14.367-15.676-16.496-6.0312-1.7188-10.812-0.64844-14.207 3.1562-6.4414 7.3242-9.1094 16.605-11.664 25.59l-0.28516 1.0117c2.6992 0.98047 3.9453-0.078125 5.1133-2.2109 2.543-4.6406 5.1953-9.1562 8.3984-14.523l0.003907-0.003906c1.4531-2.7383 3.9336-4.7812 6.8984-5.6836 2.4609-0.55469 5.0391-0.09375 7.1523 1.2812 4.832 2.9531 5.7773 8.3828 2.4609 14.207-1.7695 3.0781-3.582 6.1562-5.3828 9.2188-2.1641 3.6953-4.3398 7.3867-6.457 11.129-2.0117 4.0078-6.207 6.4414-10.684 6.2031h-8.1445-3.1562c-2.4336 19.418-2.6562 39.59-0.65234 64.977z"/>
  <path d="m508.61 377.36c-3.1562-1.8789-6.457-0.91406-8.6211 2.5273-3.9609 6.3125-6.8516 11.254-9.3594 15.93v-0.003906c-1.1289 2.4805-3.7188 3.9531-6.4258 3.6641-7.2305-0.17187-14.332-0.10937-20.332 0-3.5977 0-7.8945 1.1836-7.8945 6.3125 0 5.1289 4.3086 6.1406 7.8945 6.1875h21.297 5.4141c2.9609 0.25391 5.7852-1.2969 7.1641-3.9297l3.8516-6.582c2.9531-4.9883 5.9844-10.152 8.8867-15.281 2.0859-3.4883 1.2812-6.9453-1.875-8.8242z"/>
  <path d="m491.32 518.3c-0.23828 5.0508 4.3555 8.5703 8.7461 8.9336 5.3984 0.42578 9.9297-2.7461 10.562-7.4023 1.1211-8.2227 1.9727-16.652 2.793-24.785 0.31641-3.0938 0.63672-6.1836 0.96484-9.2656h-20.523c-0.26172 3.0938-0.53516 6.1602-0.82031 9.2031-0.66797 8.0195-1.3633 15.598-1.7227 23.316z"/>
  <path d="m424.84 393.7h23.348v8.082h-23.348z"/>
  <path d="m422.24 406.11c-0.28516 0-0.82031 0.47266-1.1992 0.82031l-0.10937 0.09375 0.17187 0.1875c0.39453 0.39453 0.96484 0.98047 1.2305 0.98047 8.0664 0.10938 16.258 0.09375 24.184 0.09375h6.0469l0.34766-0.48828-0.50391-0.45703c-0.60156-0.55078-1.293-1.1992-1.7695-1.1992-8.207-0.14062-17.223-0.14062-28.398-0.03125z"/>
  <path d="m235.63 346.34c-0.47656 1.7031-0.47656 3.5039 0 5.2109l0.28516 0.86719c2.9531 8.6836 5.9844 17.664 9.4727 26.301l-0.003906-0.003906c1.2891 3.5781 3.6484 6.6719 6.7539 8.8633s6.8086 3.375 10.613 3.3867c11.051 0.36328 22.398 0.28516 33.324 0.20703h10.262c2.875 0 4.957-1.5781 6.5664-4.9883l0.55078-1.1367 7.1992 8.8867c0-0.17188-0.15625-0.33203-0.22266-0.50391-1.2617-2.6992-2.5586-5.5078-4.0898-8.0977-1.957-3.3477-4.0898-6.6914-6.125-9.9297-2.3203-3.6484-4.7344-7.418-6.9141-11.238l-1.7383 1.0898c1.3242 2.1641 2.6836 4.3242 4.0742 6.5352l3.3164 5.3047-34.855-0.003906c-0.51172 0.14453-1.0469 0.19922-1.5781 0.16016-1.5781-0.09375-3.1562-0.078125-4.7344-0.078125h-3.1562v-0.003906c-3.0586 0.10547-5.793-1.8867-6.6328-4.8281-2.7773-7.8945-5.7773-16.258-9.2031-25.559-0.89844-2.9844-3.6875-4.9883-6.8047-4.8945-2.8867-0.14844-5.5117 1.6875-6.3594 4.4531z"/>
 </g>
</svg>
