<?xml version="1.0" encoding="UTF-8"?>
<svg width="752pt" height="752pt" version="1.1" viewBox="0 0 752 752" xmlns="http://www.w3.org/2000/svg">
 <g fill="#fff">
  <path d="m436.38 480.19c0.12891 3.1797 2.7422 5.6875 5.9219 5.6836h28.414c3.2695 0 5.918-2.6484 5.918-5.918s-2.6484-5.9219-5.918-5.9219h-28.414c-1.6133 0-3.1562 0.65625-4.2734 1.8164-1.1172 1.1641-1.7109 2.7305-1.6484 4.3398z"/>
  <path d="m565.43 315.29c-7.8516 0-15.379 3.1172-20.93 8.668-5.5508 5.5508-8.668 13.078-8.668 20.93v2.6992c-6.1328-6.6328-14.16-11.215-22.992-13.121-8.8281-1.9062-18.031-1.043-26.355 2.4648l-26.094-12.836-25.336-33.152v0.003906c-5.3438-6.9297-12.762-11.973-21.172-14.395l-34.383-10.23h0.003906c-9.5977-2.832-19.895-2.0898-28.984 2.082l-51.762 23.68c-0.94922 0.42578-1.7656 1.0977-2.3711 1.9414l-45.18 63.035c-15.992 0.74609-31.16 7.3359-42.621 18.516-8.7539 9.457-14.133 21.547-15.297 34.383h-5.5391c-8.1602 0.011719-15.984 3.2617-21.754 9.0312s-9.0156 13.59-9.0312 21.75v117.26c0 1.5703 0.625 3.0742 1.7344 4.1836s2.6172 1.7344 4.1875 1.7344h47.359c1.5664 0 3.0742-0.625 4.1836-1.7344s1.7344-2.6133 1.7344-4.1836v-41.441h319.67v41.441c0 1.5703 0.62109 3.0742 1.7344 4.1836 1.1094 1.1094 2.6133 1.7344 4.1836 1.7344h47.359c1.5703 0 3.0742-0.625 4.1836-1.7344 1.1133-1.1094 1.7344-2.6133 1.7344-4.1836v-213.11c0-7.8516-3.1172-15.379-8.668-20.93s-13.078-8.668-20.93-8.668zm-348.18 68.527c9.7539-10.23 24.816-15.438 44.707-15.438l94.098-0.003906c3.2695 0 5.9219-2.6484 5.9219-5.918s-2.6523-5.918-5.9219-5.918h-24.578l18.941-43.477h0.003907c0.91406-2.1836 0.4375-4.707-1.2109-6.4062-1.6523-1.7031-4.1562-2.2539-6.3672-1.4062l-29.93 12.219c-0.88281 0.33203-1.668 0.88672-2.2734 1.6094l-31.918 37.414-12.551-0.003907 39.023-54.273 50.391-23.254-0.003906 0.003906c6.4766-2.9844 13.816-3.5078 20.648-1.4688l34.383 10.184c5.9883 1.7734 11.254 5.4258 15.012 10.418l26.141 34.477c0.56641 0.73047 1.2969 1.3164 2.1328 1.7031l20.836 10.23c-3.9336 3.4062-7.2344 7.4766-9.7539 12.031h-3.2695l-19.414-6.8672-25.293-30.5c-1.418-1.7383-3.707-2.5156-5.8906-2.0039-2.1875 0.51562-3.8867 2.2305-4.3828 4.418l-8.5703 34.996-11.18 0.003907c-3.2695 0-5.918 2.6484-5.918 5.918 0 3.2695 2.6484 5.9219 5.918 5.9219h72.504v41.629l-253.98-0.003907c1.0352-9.7695 5.1484-18.953 11.746-26.234zm76.766-27.277 24.484-28.699 15.203-6.1562-15.105 34.855zm177.31 51.191 2.3203 2.2734h-2.3203zm-38.5-51.191h-22.496l5.1133-20.789zm-228.5 195.54h-35.52v-35.52h35.52zm331.51-78.047h-21.738c-3.2695 0-5.918 2.6523-5.918 5.9219s2.6484 5.918 5.918 5.918h21.738v18.941l-367.03 0.003906v-18.941l245.6-0.003906c3.2695 0 5.918-2.6484 5.918-5.918s-2.6484-5.9219-5.918-5.9219h-245.6v-33.152 0.003906c0-5.0234 1.9961-9.8438 5.5508-13.395 3.5508-3.5547 8.3711-5.5508 13.395-5.5508h348.08zm0-64.027h-2.2734l2.2734-2.2734zm-32.25 0c-8.5547 0-16.758-3.3984-22.805-9.4453-6.0508-6.0469-9.4492-14.25-9.4492-22.805 0-8.5547 3.3984-16.758 9.4492-22.805 6.0469-6.0469 14.25-9.4453 22.805-9.4453 8.5508 0 16.754 3.3984 22.805 9.4453 6.0469 6.0469 9.4453 14.25 9.4453 22.805-0.011719 8.5508-3.4141 16.746-9.4609 22.789-6.0469 6.0469-14.242 9.4492-22.789 9.4609zm79.609 30.781v111.29h-35.52v-207.19c0-6.3438 3.3828-12.207 8.8789-15.379 5.4961-3.1719 12.266-3.1719 17.758 0 5.4961 3.1719 8.8789 9.0352 8.8789 15.379z"/>
  <path d="m372.45 226.49c0 10.188 4.0469 19.953 11.25 27.156 7.2031 7.2031 16.973 11.25 27.156 11.25 10.188 0 19.957-4.0469 27.16-11.25 7.2031-7.2031 11.25-16.969 11.25-27.156s-4.0469-19.957-11.25-27.16c-7.2031-7.1992-16.973-11.246-27.16-11.246-10.18 0.011718-19.941 4.0625-27.145 11.262-7.1992 7.1992-11.25 16.961-11.262 27.145zm64.93 0c0 7.0469-2.8008 13.809-7.7891 18.793-4.9844 4.9805-11.746 7.7773-18.797 7.7734-7.0469-0.003906-13.805-2.8086-18.785-7.7969-4.9805-4.9883-7.7734-11.754-7.7656-18.801 0.007812-7.0508 2.8164-13.805 7.8086-18.785 4.9922-4.9766 11.758-7.7656 18.805-7.75 7.0742-0.039062 13.867 2.7422 18.879 7.7305 5.0156 4.9844 7.832 11.766 7.832 18.836z"/>
 </g>
</svg>
