<?xml version="1.0" encoding="UTF-8"?>
<svg width="752pt" height="752pt" version="1.1" viewBox="0 0 752 752" xmlns="http://www.w3.org/2000/svg">
 <g fill="#fff">
  <path d="m568.39 427.8h-399.59c-4.0859 0-7.3984 3.3164-7.3984 7.3984 0 4.0859 3.3164 7.3984 7.3984 7.3984h399.58c4.0859 0 7.3984-3.3164 7.3984-7.3984 0.003907-4.0859-3.3125-7.3984-7.3945-7.3984z"/>
  <path d="m420.4 472.2c20.957 0 41.047 5.3203 58.762 14.801l22.637-0.003906c4.0859 0 7.3984-3.3164 7.3984-7.3984v-14.801c0-4.0859-3.3164-7.3984-7.3984-7.3984h-291.41l12.758 25.508c1.2539 2.5234 3.7852 4.0898 6.6133 4.0898h131.89c17.711-9.4766 37.805-14.797 58.758-14.797z"/>
  <path d="m526.47 567.01c-13.449-47.117-57.078-80.016-106.07-80.016-48.992 0-92.621 32.898-106.07 80.012l-4.707 16.465c-0.14063 0.49609-0.21484 1.0234-0.21484 1.5391 0 3.0781 2.5039 5.582 5.582 5.582h210.83c3.0781 0 5.5781-2.5039 5.5781-5.582 0-0.51953-0.074219-1.043-0.21484-1.5391zm-106.07-13.418c-12.262 0-22.199-9.9375-22.199-22.199s9.9375-22.199 22.199-22.199c12.262 0 22.199 9.9375 22.199 22.199s-9.9375 22.199-22.199 22.199z"/>
  <path d="m472.2 413c4.0859 0 7.3984-3.3164 7.3984-7.3984 0-4.0859-3.3164-7.3984-7.3984-7.3984l-103.6-0.003906c-4.0859 0-7.3984 3.3164-7.3984 7.3984 0 4.0859 3.3164 7.3984 7.3984 7.3984z"/>
  <path d="m553.59 339h-22.199v14.801h-14.801c-8.1602 0-14.801 6.6367-14.801 14.801v11.973l-24.219-12.113c-11.773-5.8906-25.277-8.2969-38.352-6.8438l-64.887 7.2148-65.449-39.27c-13.762-8.2578-32.375-6.5195-44.367 4.1523l-39.25 34.883h29.871l27.625-20.719 8.8711 11.84-11.84 8.8789h51.805v14.801h-146.37l-5.2031-20.844c-1.293-5.1602-5.9062-8.7578-11.219-8.7578-4.0859 0-7.3984 3.3242-7.3984 7.3984v44.398c0 4.0859 3.3164 7.3984 7.3984 7.3984h178.95c-0.82812-2.3203-1.3594-4.793-1.3594-7.3945 0-12.238 9.9609-22.199 22.199-22.199h103.6c12.238 0 22.199 9.9609 22.199 22.199 0 2.6055-0.53125 5.0781-1.3633 7.3984h60.559c20.402 0 37-16.598 37-37 0-20.398-16.598-36.996-37-36.996z"/>
  <path d="m205.81 183.61h59.199v31.648c-1.0938 0.63672-2.1445 1.3672-3.0625 2.2852-2.8008 2.7969-4.3398 6.5117-4.3398 10.465 0 3.9531 1.5391 7.668 4.3359 10.465l59.199 59.199c2.7969 2.793 6.5117 4.332 10.461 4.332h59.199c5.1953 0 9.7539-2.6953 12.395-6.7422l34.172 34.172 10.465-10.465-39.168-39.164h-5.1133c-2.5586-4.4023-7.2812-7.3984-12.75-7.3984h-53.07l-54.848-54.848c-0.007812-0.007813-0.007812-0.007813-0.007812-0.015625-0.91797-0.91797-1.9688-1.6484-3.0625-2.2852v-31.648h103.6v31.648c-4.4023 2.5586-7.3984 7.2812-7.3984 12.75 0 8.1758 6.6211 14.801 14.801 14.801h59.199l32.402 32.402c2.9453 2.9453 6.9336 4.5938 11.098 4.5938 1.5742 0 3.0625-0.30469 4.5-0.73438l28.164 28.164 10.465-10.465-28.164-28.164c0.41797-1.4297 0.71875-2.918 0.71875-4.4961 0-4.168-1.6562-8.1562-4.5938-11.098l-25.004-25.004c0-8.1758-6.6211-14.801-14.801-14.801h-66.598v-29.598h73.996c4.0859 0 7.3984-3.3164 7.3984-7.3984l0.003906-14.801c0-4.0859-3.3164-7.3984-7.3984-7.3984h-266.39c-4.0859 0-7.3984 3.3125-7.3984 7.3984v14.801c0 4.082 3.3125 7.3984 7.3984 7.3984z"/>
 </g>
</svg>
