<?xml version="1.0" encoding="UTF-8"?>
<svg width="752pt" height="752pt" version="1.1" viewBox="0 0 752 752" xmlns="http://www.w3.org/2000/svg">
 <defs>
  <clipPath id="a">
   <path d="m139.21 383h473.58v215h-473.58z"/>
  </clipPath>
 </defs>
 <path d="m335.3 355.99v-20.691h-22.199v20.578l11.852 4.9766z" fill="#fff"/>
 <path d="m438.9 355.99v-20.691h-22.199v20.578l11.855 4.9766z" fill="#fff"/>
 <path d="m235.41 346.4c-16.324 0-29.602 13.273-29.602 29.59 0 16.324 13.277 29.605 29.602 29.605 16.32 0.003906 29.598-13.277 29.598-29.605 0-16.316-13.277-29.59-29.598-29.59zm0 51.797c-12.25 0-22.203-9.9727-22.203-22.207 0-12.242 9.9492-22.191 22.199-22.191 12.254 0 22.199 9.9531 22.199 22.191 0 12.234-9.9453 22.207-22.195 22.207z" fill="#fff"/>
 <path d="m308.02 379.7c27.336 0.035156 55.027 3.6602 82.785 10.789v-7.0898l7.3984-7.3984h70.273c-0.011718-20.738-0.019531-46.152-0.019531-46.152 0-30.707-19.879-54.586-45.305-66.844l-44.266 48.121c-0.78125 0.85156-1.8867 1.3359-3.043 1.3359s-2.2617-0.48438-3.043-1.332l-44.219-48.02c-25.312 12.293-45.074 36.121-45.074 66.742v50.652c2.668-0.52734 5.3945-0.80078 8.1602-0.80078zm101.29-48.098c0-2.0469 1.6562-3.6992 3.6992-3.6992h29.598c2.043 0 3.6992 1.6562 3.6992 3.6992v26.738c0 1.4336-0.82812 2.7383-2.125 3.3477l-13.961 6.5625c-0.49609 0.23047-1.0352 0.35156-1.5742 0.35156-0.48438 0-0.97266-0.097656-1.4297-0.28906l-15.641-6.5625c-1.3711-0.57422-2.2656-1.9219-2.2656-3.4102zm-33.301-11.098c2.043 0 3.6992 1.6562 3.6992 3.6992s-1.6562 3.6992-3.6992 3.6992-3.6992-1.6602-3.6992-3.6992c0-2.0469 1.6562-3.6992 3.6992-3.6992zm0 14.797c2.043 0 3.6992 1.6562 3.6992 3.6992s-1.6562 3.6992-3.6992 3.6992-3.6992-1.6602-3.6992-3.6992c0-2.043 1.6562-3.6992 3.6992-3.6992zm0 14.801c2.043 0 3.6992 1.6562 3.6992 3.6992s-1.6562 3.6992-3.6992 3.6992-3.6992-1.6602-3.6992-3.6992c0-2.043 1.6562-3.6992 3.6992-3.6992zm-70.297-18.5c0-2.0469 1.6562-3.6992 3.6992-3.6992h29.598c2.043 0 3.6992 1.6562 3.6992 3.6992v26.738c0 1.4336-0.82812 2.7383-2.125 3.3477l-13.961 6.5625c-0.49609 0.23047-1.0352 0.35156-1.5742 0.35156-0.48437 0-0.97266-0.097656-1.4297-0.28906l-15.641-6.5625c-1.3711-0.57422-2.2656-1.9219-2.2656-3.4102z" fill="#fff"/>
 <g clip-path="url(#a)">
  <path d="m589.18 383.4h-190.98v16.742c-30.254-8.6211-60.441-13.004-90.176-13.043h-16.355c-8.9648 0-17.512 3.4336-24.062 9.668-6.4805 6.3633-10 14.719-10 23.613 0 18.371 15.277 33.316 34.059 33.316h106.54v8.0352h-98.086c-17.32 0-33.672-6.5273-46.047-18.352l-41.836-40.277c-4.7969-4.6172-10.828-7.9297-17.262-9.5156-2.6016-0.68359-5.2578-1.1953-7.9258-1.6172-3.4141-0.52344-10.211-1.1719-17.625-1.1719-12.223 0-26.113 1.7578-29.293 8.7344-0.59375 1.3086-0.91406 2.793-0.91406 4.4922v103.77c0 20.887 10.223 30.465 31.809 30.465l31.152 0.039063c-0.011719 0.10937-0.0625 0.20312-0.0625 0.3125v55.676c0 2.0469 1.6562 3.6992 3.6992 3.6992h340.39c2.043 0 3.6992-1.6562 3.6992-3.6992v-55.547l39.02 0.050781h0.074219c17.191 0 23.766-6.1719 23.805-22.918 0 0 0-2.6094-0.003907-6.6758l-436.48-0.003906c-2.1016 0-3.8047-1.6562-3.8047-3.6992v-37c0-2.0469 1.7031-3.6992 3.8047-3.6992s3.8047 1.6562 3.8047 3.6992v33.297h432.66c-0.007812-7.9766-0.027344-17.918-0.058594-25.902l0.070313 0.003907v-67.793c0-17.82-6.5312-24.703-23.613-24.703zm-46.684 155.33v25.957l-332.99 0.003906v-26.074c0-0.10547-0.050781-0.19531-0.0625-0.30078zm62.895-77h-199.79v-70.934h183.58c11.965 0 16.211 2.6133 16.211 17.305z" fill="#fff"/>
 </g>
 <path d="m419.39 209.68c0.81641-6.1016 1.1914-17.219 0.92578-22.777-0.45312-9.2734-3.2031-18.148-10.715-23.973-3.6133-2.8086-8.0352-4.4375-12.305-5.8164-6.75-2.1836-13.949-3.1016-21.117-3.1016-4.3008 0-8.5898 0.33203-12.766 0.92188-3.2109 0.44922-6.3984 1.1797-9.5 2.1836-4.2695 1.3711-8.6875 3.0039-12.305 5.8086-7.0703 5.4805-9.2188 16.23-9.8164 24.973-0.13281 1.9609-0.59766 12.68 0.76953 23.215-0.03125-0.24219-0.050782-0.48438-0.078125-0.72656-0.57031 3.3047-0.87891 6.7227-0.87891 10.223 0 14.238 4.9375 27.133 12.914 36.496-2.6523 0.73047-5.2852 1.5703-7.875 2.5391l39.195 42.566 39.242-42.656c-2.5-0.92578-5.0352-1.7422-7.5938-2.4492 7.9766-9.3594 12.914-22.254 12.914-36.496 0-3.7539-0.35938-7.4023-1.0117-10.93zm-50.785-29.773h3.6992v-3.6992c0-2.0469 1.6562-3.6992 3.6992-3.6992s3.6992 1.6562 3.6992 3.6992v3.6992h3.6992c2.043 0 3.6992 1.6562 3.6992 3.6992 0 2.0469-1.6562 3.6992-3.6992 3.6992h-3.6992v3.6992c0 2.0469-1.6562 3.6992-3.6992 3.6992s-3.6992-1.6562-3.6992-3.6992v-3.6992h-3.6992c-2.043 0-3.6992-1.6562-3.6992-3.6992 0-2.0469 1.6562-3.6992 3.6992-3.6992zm7.3984 85.094c-20.402 0-37-19.914-37-44.391 0-2.8281 0.24609-5.5898 0.66797-8.2734 7.7109-1.4688 20.867-3.5703 33.332-3.5703 0.76562 0 1.5273 0.007813 2.2852 0.023438 16.242 0.35938 29.621 2.332 37.059 3.6758 0.41406 2.6445 0.65625 5.3594 0.65625 8.1445 0 24.48-16.598 44.391-37 44.391z" fill="#fff"/>
</svg>
