<?xml version="1.0" encoding="UTF-8"?>
<svg width="752pt" height="752pt" version="1.1" viewBox="0 0 752 752" xmlns="http://www.w3.org/2000/svg">
 <defs>
  <clipPath id="b">
   <path d="m139.21 142h145.79v130h-145.79z"/>
  </clipPath>
  <clipPath id="a">
   <path d="m465 457h147.79v153h-147.79z"/>
  </clipPath>
 </defs>
 <g clip-path="url(#b)">
  <path d="m157.2 159.52c-0.82812-1.5078-0.28125-3.4023 1.2305-4.2188l22.586-12.305c1.5-0.82812 3.375-0.28516 4.2109 1.2461l9.0547 16.523c34.234-10.262 72.18 4.332 89.996 36.957l-43.758 23.891c7.2305 13.23 2.3398 29.855-10.918 37.109-13.285 7.2227-29.887 2.3438-37.145-10.891l-43.777 23.859c-17.836-32.609-9.6367-72.41 17.566-95.637z" fill="#fff"/>
 </g>
 <g clip-path="url(#a)">
  <path d="m465.52 457.15h147.27v152.24h-147.27z" fill="#fff"/>
 </g>
 <path d="m448.63 533.24h-118.94c-20.738 0-37.605-16.836-37.605-37.574 0-20.777 16.867-37.578 37.605-37.578h118.94z" fill="#fff"/>
 <path d="m192.19 563.73c0-8.4023 6.8086-15.23 15.215-15.23h241.23v60.883h-256.44z" fill="#fff"/>
 <path d="m283.66 487.88c0 25.051-20.34 45.359-45.434 45.359s-45.434-20.309-45.434-45.359c0-25.051 20.34-45.359 45.434-45.359s45.434 20.309 45.434 45.359" fill="#fff"/>
 <path d="m531.99 360.84-25.555-72.758c-4.9531-13.715-14.477-24.422-41.348-24.422h-117.98c-26.855 0-36.395 10.707-41.336 24.422l-25.543 72.758c-1.9102 4.6992-2.9062 15.258 7.4961 22.336l60.082 39.578c8.7578 5.7969 20.586 3.3711 26.375-5.3789 5.7891-8.75 3.3711-20.586-5.4219-26.363l-28.863-19.027-18.812-12.402 13.422-37.023h18.578l-10.883 30.035 36.195 23.859c8.125 5.3594 13.699 13.566 15.641 23.109 1.9766 9.5469 0.097657 19.293-5.2695 27.43-2.1406 3.2383-4.7812 5.9961-7.7188 8.3555h50.117c-2.9414-2.3594-5.5664-5.1133-7.7344-8.3555-5.3594-8.1367-7.2344-17.883-5.2773-27.43s7.5312-17.75 15.648-23.109l36.219-23.859-10.926-30.035h18.598l13.449 37.023-18.816 12.402-28.891 19.023c-8.7656 5.7812-11.215 17.617-5.4141 26.363 5.8008 8.7461 17.617 11.172 26.395 5.3789l60.062-39.578c10.387-7.0742 9.4141-17.633 7.5078-22.332z" fill="#fff"/>
 <path d="m417.84 192.45c-2.8516 6.1602-9.0742 10.441-16.305 10.441-7.2461 0-13.484-4.2812-16.34-10.441h-32.91c-0.53125 2.8906-0.84766 5.8438-0.84766 8.8984 0 27.727 22.523 50.211 50.281 50.211 27.766 0 50.27-22.48 50.27-50.211 0-3.0547-0.32031-6.0078-0.83984-8.8984z" fill="#fff"/>
 <path d="m384.09 180.59c1.957-7.7891 9.0039-13.602 17.453-13.602 8.4062 0 15.504 5.8125 17.418 13.602h28.516c-7.9141-17.367-25.395-29.473-45.746-29.473-20.34 0-37.844 12.105-45.754 29.473z" fill="#fff"/>
</svg>
