<?xml version="1.0" encoding="UTF-8"?>
<svg width="752pt" height="752pt" version="1.1" viewBox="0 0 752 752" xmlns="http://www.w3.org/2000/svg">
 <defs>
  <clipPath id="a">
   <path d="m139.21 154h473.58v444h-473.58z"/>
  </clipPath>
 </defs>
 <path d="m323.61 368.31c0.45703 0.19141 0.94531 0.28906 1.4297 0.28906 0.53906 0 1.0781-0.11719 1.5742-0.35156l13.961-6.5625c1.2969-0.60938 2.125-1.9141 2.125-3.3477v-26.738c0-2.043-1.6562-3.6992-3.6992-3.6992h-29.598c-2.043 0-3.6992 1.6562-3.6992 3.6992v26.738c0 1.4883 0.89453 2.8359 2.2695 3.4102zm-10.508-33.008h22.199v20.688l-10.344 4.8633-11.855-4.9766z" fill="#fff"/>
 <path d="m427.21 368.31c0.45703 0.19141 0.94531 0.28906 1.4336 0.28906 0.53906 0 1.0781-0.11719 1.5742-0.35156l13.961-6.5625c1.293-0.60938 2.1211-1.9141 2.1211-3.3477v-26.738c0-2.043-1.6562-3.6992-3.6992-3.6992h-29.598c-2.043 0-3.6992 1.6562-3.6992 3.6992v26.738c0 1.4883 0.89453 2.8359 2.2695 3.4102zm-10.508-33.008h22.199v20.688l-10.344 4.8633-11.855-4.9766z" fill="#fff"/>
 <path d="m379.7 324.2c0 4.9336-7.4023 4.9336-7.4023 0s7.4023-4.9336 7.4023 0" fill="#fff"/>
 <path d="m379.7 339c0 4.9336-7.4023 4.9336-7.4023 0s7.4023-4.9336 7.4023 0" fill="#fff"/>
 <path d="m379.7 353.8c0 4.9336-7.4023 4.9336-7.4023 0 0-4.9297 7.4023-4.9297 7.4023 0" fill="#fff"/>
 <path d="m290.91 376c0 4.9336-7.4023 4.9336-7.4023 0s7.4023-4.9336 7.4023 0" fill="#fff"/>
 <path d="m368.6 187.31h3.6992v3.6992c0 2.043 1.6562 3.6992 3.6992 3.6992s3.6992-1.6562 3.6992-3.6992v-3.6992h3.6992c2.043 0 3.6992-1.6562 3.6992-3.6992s-1.6562-3.6992-3.6992-3.6992h-3.6992v-3.6992c0-2.043-1.6562-3.6992-3.6992-3.6992s-3.6992 1.6562-3.6992 3.6992v3.6992h-3.6992c-2.043 0-3.6992 1.6562-3.6992 3.6992s1.6562 3.6992 3.6992 3.6992z" fill="#fff"/>
 <path d="m235.41 405.6c16.32 0 29.598-13.281 29.598-29.609 0-16.316-13.277-29.59-29.598-29.59-16.324 0-29.602 13.273-29.602 29.59 0 16.328 13.277 29.609 29.602 29.609zm0-51.801c12.25 0 22.195 9.9531 22.195 22.191 0 12.234-9.9453 22.207-22.195 22.207s-22.203-9.9727-22.203-22.207c0-12.238 9.9531-22.191 22.203-22.191z" fill="#fff"/>
 <g clip-path="url(#a)">
  <path d="m612.79 408.11c0-17.82-6.5312-24.703-23.613-24.703h-120.69c-0.023438-14.262-0.042969-53.551-0.042969-53.551 0-36.809-28.559-63.77-61-72.699 8-9.3672 12.949-22.281 12.949-36.539 0-3.7539-0.35156-7.4102-1.0117-10.934 0.81641-6.1055 1.1914-17.215 0.92578-22.777-0.45312-9.2734-3.2031-18.148-10.715-23.973-3.6133-2.8086-8.0352-4.4375-12.305-5.8164-6.7461-2.1836-13.949-3.1016-21.117-3.1016-4.3008 0-8.5898 0.33203-12.766 0.91797-3.2109 0.44922-6.3984 1.1797-9.5 2.1836-4.2695 1.3828-8.6875 3.0117-12.305 5.8164-7.0703 5.4805-9.2188 16.23-9.8164 24.969-0.12891 1.9219-0.56641 12.266 0.70313 22.602-0.56641 3.2695-0.89063 6.6445-0.89063 10.113 0 14.254 4.9453 27.156 12.934 36.523-32.449 8.918-61.031 35.891-61.031 72.715v31.352c0 2.043 1.6562 3.6992 3.6992 3.6992s3.6992-1.6562 3.6992-3.6992v-31.352c0-28.246 18.844-50.051 42.664-60.91l39.566 42.969c0.69922 0.76172 1.6875 1.1953 2.7227 1.1953 1.0352 0 2.0234-0.43359 2.7227-1.1953l39.605-43.055c23.918 10.832 42.867 32.672 42.867 60.996 0 0 0.015625 39.273 0.042969 53.551h-62.895v16.805c-30.25-8.6211-60.441-13.066-90.172-13.105h-16.355c-8.9648 0-17.512 3.4336-24.062 9.6641-6.4844 6.3672-10.004 14.723-10.004 23.617 0 18.371 15.277 33.316 34.059 33.316h106.54v8.0352h-98.086c-17.32 0-33.672-6.5273-46.047-18.352l-41.836-40.277c-4.7969-4.6172-10.828-7.9297-17.262-9.5156-2.6016-0.68359-5.2578-1.1953-7.9258-1.6172-3.4141-0.52344-10.215-1.1719-17.629-1.1719-12.219 0-26.109 1.7578-29.289 8.7383-0.59375 1.3047-0.91406 2.793-0.91406 4.4883v103.77c0 20.887 10.223 30.465 31.809 30.465l31.152 0.039063c-0.007813 0.10937-0.0625 0.20312-0.0625 0.3125v55.676c0 2.043 1.6562 3.6992 3.6992 3.6992 2.043 0 3.6992-1.6562 3.6992-3.6992v-22.199h332.99v22.199c0 2.043 1.6562 3.6992 3.6992 3.6992 2.043 0 3.6992-1.6562 3.6992-3.6992v-55.547l39.02 0.046875h0.074219c17.191 0 23.766-6.1719 23.805-22.918 0 0-0.003907-23.945-0.070313-39.98l0.070313 0.003907zm-273.62-219.7c0.67578-9.832 3.0859-16.617 6.9688-19.629 2.8086-2.1758 6.6602-3.5273 10.055-4.625 2.6758-0.86328 5.4453-1.5039 8.25-1.8945 3.9922-0.5625 7.9375-0.84766 11.734-0.84766 6.8711 0 13.211 0.92578 18.844 2.7461 3.3945 1.0938 7.25 2.4453 10.047 4.625 4.8633 3.7695 7.4336 9.8164 7.8555 18.477 0.20312 4.2227 0 11.984-0.46484 17.711-7.8086-1.3555-21.148-3.2188-37.004-3.5703-0.8125-0.019532-1.6289-0.027344-2.4492-0.027344-12.43 0-25.531 1.9961-33.641 3.4922-0.54688-7.3633-0.34375-14.238-0.19531-16.457zm0.58594 23.918c7.7344-1.4688 20.871-3.5508 33.25-3.5508 0.76562 0 1.5273 0.007812 2.2852 0.023437 16.133 0.35938 29.508 2.3125 36.98 3.6562 0.42578 2.6562 0.73047 5.3633 0.73047 8.1602 0 24.477-16.598 44.395-37 44.395s-37-19.914-37-44.391c0.003906-2.8477 0.31641-5.5977 0.75391-8.293zm36.098 91.617-34.934-37.941c3.2383-1.1289 6.5273-2.0742 9.8555-2.7969 7.168 5.7891 15.855 9.2031 25.227 9.2031 9.3672 0 18.047-3.4102 25.215-9.1953 3.2461 0.70703 6.4531 1.625 9.6094 2.7188zm29.75 86.859h183.58c11.965 0 16.211 2.6172 16.211 17.305v60.391h-199.79zm-113.94 55.496c-14.703 0-26.656-11.609-26.656-25.914 0-6.8945 2.75-13.391 7.6953-18.254 5.168-4.918 11.852-7.6289 18.961-7.6289h16.348c29.707 0.042969 59.906 4.5859 90.188 13.41v38.387zm250.83 118.4h-332.99s-0.050781-26.273-0.0625-26.379l333.05 0.42188zm62.887-62.895h-425.47v-33.297c0-2.0469-1.6562-3.6992-3.6992-3.6992-2.043 0-3.6992 1.6562-3.6992 3.6992v37c0 2.0469 1.6562 3.6992 3.6992 3.6992h429.18v6.6562c-0.027344 12.488-3.2461 15.535-16.469 15.535l-417.9-0.52734c-17.566 0-24.41-6.4688-24.41-23.066v-103.77c0-0.58984 0.082031-1.0586 0.24609-1.4219 0.42578-0.92969 5.5-4.4062 22.559-4.4062 7.4375 0 13.875 0.68359 16.469 1.082 2.7422 0.43359 5.1016 0.91406 7.3125 1.4922 5.2227 1.2891 10.031 3.9375 13.902 7.6641l41.855 40.297c13.773 13.156 31.941 20.398 51.16 20.398h98.086v6.7656h207.12c0.03125 7.4453 0.050782 16.891 0.0625 25.902z" fill="#fff"/>
 </g>
 <path d="m179.88 454.31c0 4.9336-7.3984 4.9336-7.3984 0 0-4.9297 7.3984-4.9297 7.3984 0" fill="#fff"/>
</svg>
