<?xml version="1.0" encoding="UTF-8"?>
<svg width="752pt" height="752pt" version="1.1" viewBox="0 0 752 752" xmlns="http://www.w3.org/2000/svg">
 <g fill="#fff">
  <path d="m521.77 331.18 3.1289 7.8242h-52.707c-1.9648 0-3.8438 0.77734-5.2344 2.168-1.3867 1.3867-2.1641 3.2695-2.1641 5.2305v44.398c0 1.9609 0.77734 3.8438 2.1641 5.2305 1.3906 1.3906 3.2695 2.168 5.2344 2.168h79.348l31.648 18.988v55.012h-35.07c-5.1172-9.3594-13.438-16.559-23.434-20.285-9.9922-3.7227-20.996-3.7227-30.988 0-9.9961 3.7266-18.316 10.926-23.434 20.285h-20.27v-148h61.473c4.543-0.011719 8.6289 2.7578 10.305 6.9766zm-56.977 96.621h29.598v-14.801h-29.598z"/>
  <path d="m464.8 493.52c0 2.7773 0.26562 5.5508 0.78516 8.2773h-15.586v-14.801h15.281c-0.32031 2.1602-0.48047 4.3398-0.48047 6.5234z"/>
  <path d="m435.2 457.4h-14.801v14.801h14.801z"/>
  <path d="m509.19 463.92c7.8516 0 15.379 3.1172 20.93 8.668 5.5508 5.5508 8.6719 13.082 8.6719 20.93 0 7.8516-3.1211 15.379-8.6719 20.93-5.5508 5.5508-13.078 8.6719-20.93 8.6719-7.8477 0-15.375-3.1211-20.926-8.6719-5.5547-5.5508-8.6719-13.078-8.6719-20.93 0.007812-7.8477 3.1289-15.371 8.6797-20.918 5.5508-5.5508 13.074-8.6719 20.918-8.6797zm0 44.398c3.9258 0 7.6914-1.5586 10.465-4.3359 2.7773-2.7734 4.3359-6.5391 4.3359-10.465s-1.5586-7.6875-4.3359-10.465c-2.7734-2.7734-6.5391-4.332-10.465-4.332-3.9219 0-7.6875 1.5586-10.465 4.332-2.7734 2.7773-4.332 6.5391-4.332 10.465s1.5586 7.6914 4.332 10.465c2.7773 2.7773 6.543 4.3359 10.465 4.3359z"/>
  <path d="m435.2 501.77-14.797-0.046875v-14.727h14.797z"/>
  <path d="m553.11 487h30.082v14.801h-30.387c0.93359-4.8828 1.0352-9.8867 0.30469-14.801z"/>
  <path d="m442.6 272.41c3.9219 0.003906 7.6836 1.5664 10.457 4.3398 2.7734 2.7734 4.3359 6.5352 4.3398 10.457h-29.598c0.003906-3.9219 1.5664-7.6836 4.3398-10.457 2.7734-2.7734 6.5352-4.3359 10.461-4.3398z"/>
  <path d="m457.39 302h-29.598v7.3984h29.598z"/>
  <path d="m479.59 353.8h51.23l11.836 29.602h-63.066z"/>
  <path d="m405.6 501.67-59.199-0.19531v-73.676h59.199z"/>
  <path d="m204.18 294.61h151.24l3.6992 14.797h-158.64z"/>
  <path d="m235.4 463.92c7.8516 0 15.379 3.1172 20.93 8.668 5.5508 5.5508 8.6719 13.082 8.6719 20.93 0 7.8516-3.1211 15.379-8.6719 20.93s-13.078 8.6719-20.93 8.6719c-7.8477 0-15.375-3.1211-20.926-8.6719-5.5508-5.5508-8.6719-13.078-8.6719-20.93 0.007812-7.8477 3.1289-15.371 8.6797-20.918 5.5508-5.5508 13.074-8.6719 20.918-8.6797zm0 44.398c3.9258 0 7.6914-1.5586 10.465-4.3359 2.7773-2.7734 4.3359-6.5391 4.3359-10.465s-1.5586-7.6875-4.3359-10.465c-2.7734-2.7734-6.5391-4.332-10.465-4.332-3.9219 0-7.6875 1.5586-10.461 4.332-2.7773 2.7773-4.3359 6.5391-4.3359 10.465s1.5586 7.6914 4.3359 10.465c2.7734 2.7773 6.5391 4.3359 10.461 4.3359z"/>
  <path d="m191.01 493.52c0 2.4961 0.21484 4.9883 0.63281 7.4492l-11.555-0.039062-9.6719-13.934h21.074c-0.32031 2.1602-0.48047 4.3398-0.48047 6.5234z"/>
  <path d="m331.6 457.4v14.801h-57.27c-3.2266-5.8555-7.7227-10.914-13.16-14.801z"/>
  <path d="m168.81 339v-14.801h44.398v118.39h-44.398v-29.598h29.598v-14.801h-29.598v-14.797h29.598v-14.801h-29.598v-14.801h29.598v-14.797z"/>
  <path d="m196.48 472.2h-27.668v-14.801h40.828c-5.4375 3.8867-9.9336 8.9453-13.16 14.801z"/>
  <path d="m279.32 487h52.281v14.43l-52.484-0.17578-0.003907 0.003906c0.84375-4.7109 0.91406-9.5273 0.20703-14.258z"/>
  <path d="m287.2 398.2v7.3984h-14.801v-7.3984c0-4.0859-3.3125-7.3984-7.3984-7.3984h-7.3984l-0.003907-14.801h7.4023c4.0859 0 7.3984-3.3125 7.3984-7.3984v-7.3984h14.801v7.3984c0 1.9609 0.77734 3.8438 2.168 5.2344 1.3867 1.3867 3.2695 2.1641 5.2305 2.1641h7.3984v14.801h-7.3984c-1.9609 0-3.8438 0.78125-5.2305 2.168-1.3906 1.3867-2.168 3.2695-2.168 5.2305z"/>
  <path d="m405.6 398.2h-59.199v14.801h59.199z"/>
  <path d="m331.6 442.6h-103.6v-118.39h207.19v118.39h-14.801l0.003907-51.797c0-4.0859-3.3164-7.3984-7.4023-7.3984h-73.996c-1.9609 0-3.8438 0.77734-5.2305 2.168-1.3906 1.3867-2.168 3.2695-2.168 5.2305zm-14.801-73.996c0-4.0859-3.3125-7.3984-7.3984-7.3984h-7.3984v-7.3984l-0.003906-0.003907c0-4.0859-3.3125-7.3984-7.3984-7.3984h-29.598c-1.9648 0-3.8438 0.78125-5.2344 2.168-1.3867 1.3867-2.168 3.2695-2.168 5.2305v7.3984h-7.3984v0.003906c-1.9609 0-3.8438 0.77734-5.2305 2.168-1.3906 1.3867-2.168 3.2695-2.168 5.2305v29.598c0 1.9648 0.77734 3.8477 2.168 5.2344 1.3867 1.3867 3.2695 2.168 5.2305 2.168h7.3984v7.3984c0 1.9609 0.78125 3.8438 2.168 5.2305 1.3906 1.3906 3.2695 2.168 5.2344 2.168h29.598c4.0859 0 7.3984-3.3125 7.3984-7.3984v-7.3984h7.4023c4.0859 0 7.3984-3.3125 7.3984-7.4023z"/>
  <path d="m442.6 250.21c-1.9648 0-3.8477-0.78125-5.2344-2.168-1.3867-1.3867-2.168-3.2695-2.168-5.2305v-22.199c0-4.0898 3.3125-7.4023 7.4023-7.4023 4.0859 0 7.3984 3.3125 7.3984 7.4023v22.199c0 1.9609-0.78125 3.8438-2.168 5.2305-1.3867 1.3867-3.2695 2.168-5.2305 2.168z"/>
  <path d="m477.43 255.44c-2.8867 2.8906-7.5742 2.8906-10.465 0-2.8867-2.8867-2.8867-7.5742 0-10.465l14.801-14.801v0.003906c2.8906-2.8906 7.5742-2.8906 10.465 0 2.8906 2.8867 2.8906 7.5742 0 10.465z"/>
  <path d="m413 257.61c-1.9609 0.003906-3.8438-0.77734-5.2305-2.168l-14.801-14.801v0.003906c-2.8906-2.8906-2.8906-7.5781 0-10.465 2.8906-2.8906 7.5742-2.8906 10.465 0l14.801 14.801v-0.003906c2.1172 2.1172 2.75 5.3008 1.6016 8.0664-1.1445 2.7656-3.8438 4.5664-6.8359 4.5664z"/>
 </g>
</svg>
